<svg viewBox="0 0 1216 184.45" xmlns="http://www.w3.org/2000/svg"><g fill="#fff"><path d="m480.18 6.48v2.01c-4.89 0-9.9 2.75-14.79 8.27-4.48 5.05-8.57 11.19-12.24 18.52l-.02.03-39.66 110.85v.04s-10.66 34.33-10.66 34.33h-2.5c-23.73-67.49-39.91-112.95-48.55-136.38l-44.91 125.49-.2.57-3.65 10.32h-2.14l-49.89-141.83c-3.15-8.9-7.28-16.18-12.3-21.82-5.14-5.65-10.15-8.4-15.17-8.4v-2.01h73.73v2.01c-4.64 0-8.4 3.13-11.29 9.4-1.38 3.02-2.01 6.4-2.01 10.28 0 4.15.74 8.92 2.39 14.06l30.48 86.54 32.56-91.02c-2.55-6.79-4.13-10.78-4.75-11.95-2.5-4.64-5.52-8.79-9.15-12.17s-7.77-5.14-12.53-5.14v-2.01h74.1v2.01c-4.64 0-8.41 3.13-11.29 9.4-1.38 2.88-2.01 6.27-2.01 10.16 0 4.14.88 8.9 2.52 14.17l29.62 84.17 34.07-95.19c.03-.12.06-.22.1-.34 1.85-5.8-.04-12.4-.38-13.52-.04-.11-.06-.16-.06-.16-.25-.57-.51-1.17-.79-1.79-2.12-4.64-5.64-6.9-10.28-6.9v-2.01h41.62z"/><path d="m28.01 161.83c.02.62.1 1.19.29 1.67-.14-.61-.23-1.17-.29-1.67"/><path d="m256.68 178.6v2.01h-73.73v-2.01c4.64 0 8.4-3.13 11.29-9.4 1.38-3.02 2.01-6.4 2.01-10.29 0-4.13-.76-8.9-2.39-14.04l-30.36-86.21-32.56 91.03c2.47 6.59 4.01 10.45 4.61 11.61 2.52 4.64 5.52 8.77 9.17 12.17 3.63 3.38 7.77 5.14 12.53 5.14v2.01h-74.11v-2.01c4.63 0 8.39-3.13 11.27-9.4 1.39-2.9 2.01-6.28 2.01-10.16 0-4.14-.88-8.9-2.5-14.17l-30.22-85.9-34.58 96.66s-1.2 3.45-1.13 6.12c0 .03 0 .06.02.08.01.61.1 1.18.29 1.67.5 2.08 1.51 4.85 3.04 8.2 2.14 4.64 5.65 6.9 10.29 6.9v2.01h-41.63v-2.01c4.89 0 9.91-2.77 14.8-8.27 3.09-3.48 6-7.5 8.71-12.06l51.14-142.98 2.72-8.75h2.5c.43 1.2.85 2.4 1.26 3.58.02.02.02.03.02.05 23.15 65.82 38.94 110.17 47.4 133.09l32.62-91.19-.05-.13 16.06-45.4h2.12l49.91 141.83c3.13 8.9 7.28 16.18 12.28 21.82 5.16 5.64 10.16 8.4 15.18 8.4"/><path d="m81.17 10.15v.03s-.01-.03-.03-.05z"/><path d="m531.71 181.08h-18.44v-25.79h17.9v3.12h-14.54v7.66h9.21v3.12h-9.21v8.77h15.08z"/><path d="m537.77 161.4c.98-1.95 2.41-3.46 4.3-4.53 1.88-1.1 4.16-1.65 6.84-1.65s4.93.55 6.84 1.66 3.35 2.66 4.33 4.64c.95 1.93 1.43 4.15 1.43 6.66 0 2.87-.61 5.35-1.82 7.45-1.22 2.1-2.99 3.62-5.3 4.55 1.34 1.19 2.68 1.79 4.02 1.79 1.09 0 2.1-.28 3.01-.82l-.11 2.58c-1.08.48-2.19.72-3.33.72-.81 0-1.67-.2-2.58-.61s-1.68-.9-2.33-1.47c-.53-.43-1.04-.9-1.54-1.4-1 .12-1.87.18-2.61.18-2.68 0-4.97-.55-6.88-1.65s-3.34-2.63-4.3-4.62c-.95-1.93-1.43-4.16-1.43-6.7s.49-4.84 1.47-6.79m2.33 12.21c.74 1.56 1.85 2.8 3.33 3.71s3.31 1.36 5.48 1.36 3.97-.44 5.46-1.33c1.49-.88 2.62-2.14 3.39-3.76.72-1.57 1.07-3.38 1.07-5.41s-.37-3.86-1.11-5.43c-.74-1.56-1.84-2.8-3.29-3.71-1.53-.91-3.37-1.36-5.51-1.36s-3.97.44-5.46 1.33c-1.49.88-2.61 2.14-3.35 3.76-.74 1.55-1.11 3.36-1.11 5.41s.37 3.86 1.11 5.43"/><path d="m574.38 180.77c-1.25-.49-2.38-1.25-3.39-2.27-1.03-1.03-1.77-2.21-2.24-3.55s-.7-2.97-.7-4.91v-14.76h3.37v14.79c0 2.72.61 4.78 1.83 6.16s3.02 2.08 5.4 2.08 4.25-.68 5.45-2.04c1.19-1.36 1.79-3.43 1.79-6.2v-14.79h3.37v14.76c0 1.88-.23 3.5-.7 4.85-.46 1.35-1.22 2.55-2.28 3.6-1.05 1.05-2.17 1.81-3.37 2.29-1.19.47-2.61.71-4.26.71s-3.02-.24-4.28-.73"/><path d="m600.22 181.08h-3.36l-.11-25.79h3.37z"/><path d="m608.07 155.29h10.53c2.79 0 4.91.62 6.35 1.86s2.17 3.06 2.17 5.44-.72 4.28-2.17 5.54c-1.45 1.25-3.56 1.88-6.35 1.88h-7.17v11.07h-3.37v-25.79zm10.35 11.6c1.91 0 3.28-.33 4.12-.98.84-.66 1.25-1.74 1.25-3.24s-.41-2.62-1.24-3.28c-.82-.65-2.2-.98-4.13-.98h-6.98v8.49h6.98z"/><path d="m651.65 181.08h-18.44v-25.79h17.91v3.12h-14.54v7.66h9.2v3.12h-9.2v8.77h15.07z"/><path d="m670.4 178.14c-2.18-2.34-3.26-5.66-3.2-9.96-.05-4.25 1.02-7.55 3.2-9.9s5.28-3.53 9.29-3.53c3.32 0 6.02.75 8.09 2.26l-.07 3.58c-2.46-1.77-5.06-2.65-7.81-2.65-3.08 0-5.42.87-7.02 2.61s-2.36 4.29-2.29 7.63c-.07 3.37.69 5.92 2.28 7.66s3.95 2.61 7.07 2.61c3.34 0 6.1-1.07 8.28-3.22l.11 3.72c-2.22 1.79-5.07 2.69-8.56 2.69-4.06 0-7.18-1.17-9.37-3.51"/><path d="m712.72 156.49c1.95 1.09 3.46 2.63 4.51 4.64 1.05 2.03 1.57 4.38 1.57 7.06s-.52 5.05-1.57 7.07-2.55 3.56-4.48 4.64c-1.96 1.08-4.26 1.61-6.92 1.61s-4.95-.54-6.89-1.61c-1.95-1.07-3.45-2.61-4.5-4.62-1.05-2.03-1.57-4.39-1.57-7.09s.52-5.09 1.57-7.09c1.05-2.01 2.55-3.55 4.51-4.62 1.93-1.07 4.23-1.61 6.87-1.61s4.92.54 6.88 1.63m.14 19.14c1.69-1.79 2.54-4.27 2.54-7.45s-.84-5.66-2.52-7.45-4.03-2.69-7.04-2.69-5.32.9-7.02 2.69-2.54 4.27-2.54 7.45.84 5.66 2.52 7.45 4.03 2.69 7.03 2.69 5.32-.9 7.02-2.69"/><path d="m731.32 180.77c-1.25-.49-2.38-1.25-3.39-2.27-1.03-1.03-1.77-2.21-2.24-3.55s-.7-2.97-.7-4.91v-14.76h3.37v14.79c0 2.72.61 4.78 1.83 6.16s3.02 2.08 5.4 2.08 4.25-.68 5.45-2.04c1.19-1.36 1.79-3.43 1.79-6.2v-14.79h3.37v14.76c0 1.88-.23 3.5-.7 4.85-.46 1.35-1.22 2.55-2.28 3.6-1.05 1.05-2.17 1.81-3.37 2.29-1.19.47-2.61.71-4.26.71s-3.02-.24-4.28-.73"/><path d="m753.62 155.29h11.57c2.89 0 4.99.57 6.3 1.7s1.97 2.96 1.97 5.46c0 1.7-.55 3.18-1.66 4.44-1.11 1.27-2.6 2.11-4.46 2.54l9.2 11.64h-4.05l-8.85-11.28h-6.66v11.28h-3.37v-25.79zm11.43 11.39c1.62 0 2.87-.35 3.74-1.06s1.31-1.72 1.31-3.06c0-1.12-.11-1.95-.34-2.49s-.68-.95-1.38-1.23c-.74-.29-1.85-.43-3.33-.43h-8.06v8.27z"/><path d="m789.9 181.12h-3.37v-22.67h-8.63v-3.12h20.74v3.12h-8.74z"/><path d="m807.66 181.08h-3.36l-.11-25.79h3.37z"/><path d="m833.95 181.08h-18.44v-25.79h17.9v3.12h-14.54v7.66h9.21v3.12h-9.21v8.77h15.08z"/><path d="m839.75 155.29h11.57c2.89 0 4.99.57 6.3 1.7s1.97 2.96 1.97 5.46c0 1.7-.55 3.18-1.66 4.44-1.11 1.27-2.6 2.11-4.46 2.54l9.2 11.64h-4.05l-8.85-11.28h-6.66v11.28h-3.37v-25.79zm11.43 11.39c1.62 0 2.87-.35 3.74-1.06s1.31-1.72 1.31-3.06c0-1.12-.11-1.95-.34-2.49s-.68-.95-1.38-1.23c-.74-.29-1.85-.43-3.33-.43h-8.06v8.27z"/><path d="m869.43 180.74c-1.73-.52-3.12-1.2-4.17-2.06l.14-3.98c1 1.07 2.42 1.98 4.26 2.72 1.7.6 3.38.89 5.05.89 1.93 0 3.5-.4 4.71-1.22 1.2-.81 1.82-1.87 1.84-3.19.03-.07.04-.2.04-.39 0-.5-.16-.98-.46-1.45-.31-.47-.76-.88-1.33-1.24h-.04c-.19-.17-.65-.39-1.4-.68l-1.54-.5-1.79-.54c-1.41-.41-2.32-.69-2.72-.86-.74-.24-1.5-.55-2.29-.95-.79-.39-1.41-.81-1.86-1.27-.48-.55-.85-1.19-1.13-1.92-.27-.73-.41-1.48-.41-2.27 0-1.36.39-2.57 1.17-3.64.77-1.06 1.87-1.89 3.28-2.47 1.41-.59 3.02-.88 4.83-.88 3.15 0 5.85.75 8.09 2.25l-.14 3.55c-2.53-1.74-5.19-2.61-7.98-2.61-1.77 0-3.17.34-4.21 1.02s-1.58 1.6-1.63 2.74l-.03.29c0 .74.46 1.48 1.39 2.22.19.14.56.32 1.11.54l1.15.47 1.54.39 1.5.43 1.14.36c.88.28 1.53.51 1.93.68.41.17.93.42 1.57.76.84.45 1.51.94 2.03 1.45.51.52.91 1.14 1.2 1.88s.43 1.54.43 2.4c0 2.53-1.01 4.48-3.04 5.84-1.91 1.33-4.21 2-6.88 2-1.84 0-3.62-.25-5.35-.77"/><path d="m905.58 181.08h-3.37l-.11-25.79h3.37z"/><path d="m916.75 181.08h-3.33v-25.79h3.15l8.89 13.29 8.88-13.29h3.12v25.79h-3.34l.11-20.2-7.77 11.89h-1.97l-7.88-11.82z"/><path d="m948.45 181.08h-3.33v-25.79h3.15l8.88 13.29 8.88-13.29h3.12v25.79h-3.33l.1-20.2-7.76 11.89h-1.98l-7.88-11.82z"/><path d="m995.62 156.49c1.96 1.09 3.46 2.63 4.51 4.64 1.05 2.03 1.58 4.38 1.58 7.06s-.52 5.05-1.58 7.07c-1.05 2.02-2.55 3.56-4.48 4.64-1.96 1.08-4.26 1.61-6.91 1.61s-4.94-.54-6.89-1.61-3.45-2.61-4.5-4.62c-1.05-2.03-1.57-4.39-1.57-7.09s.52-5.09 1.57-7.09c1.05-2.01 2.55-3.55 4.51-4.62 1.93-1.07 4.23-1.61 6.87-1.61s4.92.54 6.88 1.63m.14 19.14c1.69-1.79 2.54-4.27 2.54-7.45s-.84-5.66-2.52-7.45-4.03-2.69-7.04-2.69-5.32.9-7.02 2.69-2.54 4.27-2.54 7.45.84 5.66 2.52 7.45 4.03 2.69 7.03 2.69 5.32-.9 7.02-2.69"/><path d="m1008.4 154.86h11.21c2.32 0 4.15.58 5.52 1.74 1.36 1.16 2.04 2.73 2.04 4.71 0 1.1-.22 2.06-.66 2.9s-1.08 1.49-1.92 1.97c1.48.45 2.64 1.28 3.48 2.47s1.25 2.64 1.25 4.33c0 1.48-.38 2.84-1.14 4.08-.77 1.24-1.8 2.22-3.12 2.94-1.31.71-2.76 1.07-4.34 1.07h-12.32v-26.22zm10.78 10.64c3.34 0 5.01-1.24 5.01-3.72 0-1.33-.43-2.36-1.3-3.08s-2.11-1.08-3.71-1.08h-7.77v7.88zm1.07 12.46c1 0 1.93-.23 2.77-.7.85-.47 1.52-1.11 2.03-1.92.48-.84.71-1.73.71-2.69 0-1.43-.48-2.54-1.43-3.31s-2.32-1.17-4.08-1.17h-8.49v9.78h8.49z"/><path d="m1039.27 181.08h-3.36l-.11-25.79h3.37z"/><path d="m1064.59 181.01h-17.37v-25.79h3.37v22.67h14z"/><path d="m1073.37 181.08h-3.37l-.11-25.79h3.37z"/><path d="m1099.66 181.08h-18.45v-25.79h17.91v3.12h-14.54v7.66h9.2v3.12h-9.2v8.77h15.08z"/><path d="m1105.46 155.29h11.57c2.89 0 4.99.57 6.3 1.7s1.97 2.96 1.97 5.46c0 1.7-.55 3.18-1.66 4.44-1.11 1.27-2.6 2.11-4.46 2.54l9.2 11.64h-4.05l-8.85-11.28h-6.66v11.28h-3.37v-25.79zm11.43 11.39c1.62 0 2.87-.35 3.74-1.06s1.31-1.72 1.31-3.06c0-1.12-.11-1.95-.34-2.49s-.68-.95-1.38-1.23c-.74-.29-1.85-.43-3.33-.43h-8.06v8.27z"/><path d="m1135.13 180.74c-1.73-.52-3.12-1.2-4.17-2.06l.14-3.98c1 1.07 2.42 1.98 4.26 2.72 1.7.6 3.38.89 5.05.89 1.93 0 3.5-.4 4.71-1.22 1.2-.81 1.82-1.87 1.84-3.19.03-.07.04-.2.04-.39 0-.5-.16-.98-.46-1.45-.31-.47-.76-.88-1.33-1.24h-.04c-.19-.17-.65-.39-1.4-.68l-1.54-.5-1.79-.54c-1.41-.41-2.32-.69-2.72-.86-.74-.24-1.5-.55-2.29-.95-.79-.39-1.41-.81-1.86-1.27-.48-.55-.85-1.19-1.13-1.92-.27-.73-.41-1.48-.41-2.27 0-1.36.39-2.57 1.17-3.64.78-1.06 1.87-1.89 3.28-2.47 1.41-.59 3.02-.88 4.83-.88 3.15 0 5.85.75 8.09 2.25l-.14 3.55c-2.53-1.74-5.19-2.61-7.98-2.61-1.77 0-3.17.34-4.21 1.02s-1.58 1.6-1.63 2.74l-.03.29c0 .74.46 1.48 1.39 2.22.19.14.56.32 1.11.54l1.15.47 1.54.39 1.5.43 1.14.36c.88.28 1.53.51 1.93.68.41.17.93.42 1.57.76.84.45 1.51.94 2.03 1.45.51.52.91 1.14 1.2 1.88s.43 1.54.43 2.4c0 2.53-1.01 4.48-3.04 5.84-1.91 1.33-4.21 2-6.88 2-1.84 0-3.62-.25-5.35-.77"/><path d="m516.56 150.88h11.27v1.32h-11.27z" transform="matrix(.99769613 -.06784116 .06784116 .99769613 -9.08 35.77)"/><path d="m539.68 37.6h-21.33v-32.11h3.39v29.04h17.94z"/><path d="m542.11 14.66-2.93 1.38v-10.23h2.93z"/><path d="m572.34 37.69h-22.71v-32.11h22.02v3.08h-18.62v10.73h11.79v3.07h-11.79v12.16h19.31z"/><path d="m580.09 37.69h-3.99l12.89-16.05-11.24-16.06h3.99l9.32 13.31 9.36-13.31h3.9l-11.24 16.01 12.89 16.1h-4.22l-10.74-13.35z"/><path d="m612.12 5.58h13.03c3.52 0 6.14.76 7.87 2.29s2.59 3.73 2.59 6.61-.87 5.18-2.59 6.72c-1.73 1.55-4.35 2.32-7.87 2.32h-9.63v14.17h-3.39v-32.11zm12.8 14.86c2.63 0 4.51-.48 5.64-1.44s1.7-2.44 1.7-4.43-.56-3.58-1.67-4.52c-1.12-.93-3.01-1.4-5.67-1.4h-9.4v11.79z"/><path d="m665.65 37.69h-22.71v-32.11h22.02v3.08h-18.62v10.73h11.79v3.07h-11.79v12.16h19.31z"/><path d="m672.62 5.58h14.36c3.7 0 6.31.71 7.84 2.13s2.3 3.62 2.3 6.58c0 2.2-.76 4.09-2.3 5.67-1.53 1.57-3.5 2.56-5.92 2.96l11.65 14.77h-3.99l-11.33-14.45h-9.22v14.45h-3.39zm14.17 14.59c2.2 0 3.91-.5 5.12-1.49 1.21-1 1.81-2.41 1.81-4.24 0-1.44-.17-2.55-.51-3.33s-.98-1.38-1.93-1.81c-1.04-.43-2.54-.64-4.5-.64h-10.78v11.51h10.78z"/><path d="m710.33 37.69h-3.39l-.14-32.11h3.39z"/><path d="m742.63 37.69h-22.71v-32.11h22.02v3.08h-18.62v10.73h11.78v3.07h-11.78v12.16h19.31z"/><path d="m752.58 37.69h-3.3l.55-32.11h2.94l19.72 26.24.69-26.24h3.31l-.83 32.11h-2.89l-19.73-26.33z"/><path d="m788.07 34c-2.68-2.95-3.99-7.07-3.92-12.36-.06-5.29 1.25-9.4 3.92-12.34 2.68-2.93 6.57-4.4 11.67-4.4 3.97 0 7.26.89 9.86 2.66l-.09 3.49c-2.97-1.99-6.16-2.98-9.58-2.98-4.16 0-7.28 1.19-9.36 3.56s-3.07 5.71-2.98 10.02c-.09 4.34.9 7.7 2.98 10.07s5.21 3.56 9.4 3.56 7.45-1.19 10.23-3.58l.09 3.53c-2.72 2.14-6.21 3.21-10.46 3.21-5.17 0-9.09-1.47-11.77-4.43"/><path d="m840.16 37.69h-22.71v-32.11h22.02v3.08h-18.63v10.73h11.79v3.07h-11.79v12.16h19.32z"/><path d="m647.12.52h15.54v1.82h-15.54z" transform="matrix(.99770796 -.06766703 .06766703 .99770796 1.4 44.31)"/><path d="m514.63 66.66v-.98h15.5l21.83 45.98.09.18-5.44 13.1c-3.74-7.6-7.47-15.16-11.19-22.68-3.71-7.51-7.44-15.07-11.18-22.68l-1.43 35.72c-.11 2.8.43 4.84 1.65 6.12s3.22 1.98 6.01 2.1l1.78.09v.89h-19.87v-.89l1.07-.09c1.96-.12 3.4-.73 4.32-1.83s1.44-2.77 1.56-5.03l1.69-44.02c-.06-3.68-1.87-5.62-5.43-5.79l-.98-.18zm73.43-.89.09.98-1.07.09c-1.9.12-3.27.7-4.1 1.74s-1.22 2.66-1.16 4.86l1.96 43.22c.18 4.4 2.17 6.68 5.97 6.86l1.07.08v.9h-24.77v-.89l.98-.09c1.9-.12 3.27-.65 4.1-1.61.83-.95 1.28-2.41 1.34-4.37l-1.07-43.12-22.1 50.62h-2.76l24.6-59.26h16.93z"/><path d="m630.41 124.58.18-.98 2.14-.09c2.32-.12 3.75-.71 4.28-1.78.54-1.07.3-2.76-.71-5.08l-5.7-12.74h-20.58l-4.28 11.41c-1.01 2.73-1.13 4.75-.35 6.06.77 1.31 2.52 2.02 5.26 2.14l1.42.09v.98h-19.96v-.98l1.07-.09c1.9-.12 3.48-.64 4.72-1.56 1.25-.92 2.32-2.33 3.21-4.23l20.67-53.29h2.85l24.51 53.47c1.19 2.26 2.39 3.77 3.61 4.54s2.81 1.16 4.77 1.16v.98h-27.09zm-.98-23.53-9.98-22.28-8.28 22.28h18.27z"/><path d="m659.43 66.75v-.98h30.3c3.39 0 6.47.35 9.27 1.07 2.79.71 5.18 1.74 7.17 3.07 1.99 1.34 3.54 2.94 4.64 4.81s1.65 3.94 1.65 6.19c0 3.56-1.29 6.61-3.87 9.13-2.59 2.52-6.14 4.38-10.65 5.57 1.25 1.6 3.29 4.26 6.15 7.99 2.85 3.73 6.27 8.29 10.25 13.68.89 1.25 1.62 2.21 2.18 2.89s1.1 1.17 1.6 1.47 1.08.47 1.74.53 1.52.09 2.58.09v2.32h-3.92c-3.03 0-5.45-.06-7.26-.18-1.82-.12-3.37-.49-4.68-1.11s-2.51-1.57-3.61-2.85-2.51-3.04-4.23-5.3c-3.09-4.22-5.79-7.9-8.11-11.05s-4.13-5.58-5.44-7.31h-7.66v19.94c0 2.26.45 3.95 1.34 5.05s2.35 1.71 4.37 1.83l.98.08v.9h-24.77v-.89l.98-.09c2.02-.12 3.48-.73 4.37-1.83s1.33-2.78 1.33-5.05v-43.02c0-2.26-.45-3.94-1.33-5.05-.9-1.1-2.35-1.71-4.37-1.83l-.98-.09zm27.89 27.18c3.98 0 7.17-1.19 9.58-3.56 2.41-2.38 3.61-5.53 3.61-9.45s-.98-6.73-2.94-8.96-4.58-3.34-7.84-3.34h-12.21v25.31z"/><path d="m717.22 82.07-.8.09c.18-2.25.38-4.72.62-7.39.24-2.68.48-5.16.71-7.44h-.09l.09-1.47h55.79l.09 1.47h.09c.18 2.29.39 4.77.62 7.44.24 2.67.48 5.14.71 7.39h-.8l-2.32-5.43c-1.19-2.85-2.67-4.9-4.45-6.15s-4.1-1.87-6.95-1.87h-8.91v48.03c0 2.26.45 3.94 1.34 5.03.89 1.1 2.35 1.71 4.37 1.83l.98.08v.9h-24.77v-.89l.98-.09c2.02-.12 3.48-.73 4.37-1.83s1.34-2.77 1.34-5.03v-48.03h-9.45c-2.8 0-5.07.62-6.82 1.87s-3.22 3.26-4.41 6.06l-2.31 5.43z"/><path d="m803.42 65.77.18.98-1.07.09c-2.14.12-3.36.73-3.66 1.82-.3 1.1.27 2.77 1.7 5.02l12.21 19.45 12.12-17.67c1.96-2.84 2.81-4.96 2.54-6.35s-1.74-2.14-4.41-2.27l-1.34-.18v-.98h18.27v.98l-.89.18c-1.78.12-3.45.73-4.99 1.83-1.55 1.1-3.12 2.78-4.72 5.03l-15.33 21.92v21.03c0 2.26.44 3.94 1.33 5.03.89 1.1 2.35 1.71 4.37 1.83l.98.08v.9h-24.68v-.89l.98-.09c1.9-.12 3.29-.65 4.15-1.6s1.35-2.41 1.47-4.37l-.09-18.54-16.49-26.29c-1.3-1.9-2.58-3.31-3.83-4.23s-2.58-1.44-4.01-1.56l-.71-.09v-1.07h25.93z"/><path d="m888.27 65.77.09 1.07-1.16.09c-2.26.12-3.69.73-4.28 1.83-.6 1.1-.48 2.78.35 5.03l13.72 36.54-5.26 15.69-21.3-53.29c-.89-1.9-1.87-3.32-2.94-4.28-1.07-.95-2.38-1.48-3.92-1.6l-.89-.09v-.98h25.58zm40.28 60.15-19.43-43.13-14.52 43.13h-2.85l20.5-61.04h2.85l18.81 44.11-5.35 16.93zm28.7-60.15.09.98-.98.09c-2.02.12-3.65.73-4.9 1.83s-2.25 2.78-3.03 5.03l-17.02 52.22h-2.85l16.75-52.84c.53-2.08.43-3.61-.31-4.59s-2.24-1.53-4.5-1.65l-2.31-.09v-.98h19.07z"/><path d="m987 124.58.18-.98 2.14-.09c2.32-.12 3.74-.71 4.28-1.78s.3-2.76-.71-5.08l-5.7-12.74h-20.58l-4.28 11.41c-1.01 2.73-1.13 4.75-.35 6.06.77 1.31 2.52 2.02 5.26 2.14l1.42.09v.98h-19.96v-.98l1.07-.09c1.9-.12 3.48-.64 4.72-1.56 1.25-.92 2.31-2.33 3.21-4.23l20.67-53.29h2.85l24.51 53.47c1.19 2.26 2.39 3.77 3.61 4.54s2.81 1.16 4.77 1.16v.98h-27.09zm-.98-23.53-9.98-22.28-8.28 22.28h18.27z"/><path d="m1041.42 123.6v.98h-24.77v-.98l.98-.09c2.02-.12 3.48-.73 4.37-1.83s1.34-2.78 1.34-5.04v-43.02c0-2.26-.45-3.94-1.34-5.05-.89-1.1-2.35-1.71-4.37-1.83l-.98-.08v-.9h24.77v.89l-.98.09c-2.02.12-3.48.73-4.37 1.83s-1.34 2.78-1.34 5.05v43.02c0 2.26.45 3.94 1.34 5.04s2.34 1.71 4.37 1.83z"/><path d="m1043.61 82.07-.8.09c.18-2.25.38-4.72.62-7.39.24-2.68.48-5.16.71-7.44h-.09l.09-1.47h55.79l.09 1.47h.09c.18 2.29.39 4.77.62 7.44.24 2.67.48 5.14.71 7.39h-.8l-2.32-5.43c-1.19-2.85-2.67-4.9-4.45-6.15s-4.1-1.87-6.95-1.87h-8.91v48.03c0 2.26.45 3.94 1.34 5.03.89 1.1 2.35 1.71 4.37 1.83l.98.08v.9h-24.77v-.89l.98-.09c2.02-.12 3.48-.73 4.37-1.83s1.34-2.77 1.34-5.03v-48.03h-9.45c-2.8 0-5.07.62-6.82 1.87s-3.22 3.26-4.41 6.06l-2.31 5.43z"/><path d="m1143.38 102.21h-.8l-.36-1.16c-.65-2.26-1.82-3.89-3.52-4.9-1.69-1.01-4.05-1.52-7.09-1.52h-10.43v27.09h14.26c3.39 0 6.27-.77 8.64-2.32s4.43-4.01 6.15-7.4l1.25-2.31h.71c-.35 2.02-.76 4.26-1.2 6.73s-.84 4.71-1.2 6.73l-.27 1.42h-46.43v-.98l.98-.09c2.02-.12 3.48-.73 4.37-1.83s1.33-2.78 1.33-5.05v-43.02c0-2.26-.44-3.94-1.33-5.04s-2.35-1.71-4.37-1.83l-.98-.08v-.9h46.51v14.88h-.71l-.8-2.31c-1.19-3.39-2.82-5.85-4.9-7.4-2.08-1.54-4.81-2.32-8.2-2.32h-13.81v23.17h10.43c3.03 0 5.38-.45 7.04-1.34s2.85-2.35 3.56-4.37l.36-.98h.8v17.11z"/><path d="m1167.21 124.86v-.96c2.81-.21 3.08-.41 3.08-3.32v-13.71c0-2.91-.27-3.12-3.08-3.33v-.96h9.08v.96c-2.81.21-3.08.41-3.08 3.33v13.71c0 2.95.27 3.12 3.08 3.32v.96z"/><path d="m1187.87 124.86v-.89c2.02-.21 2.26-.48 2.26-2.85v-5.72c0-2.37-.82-3.91-3.12-3.91-1.37 0-2.71.86-3.74 1.75v8.05c0 2.33.2 2.47 2.23 2.68v.89h-7.44v-.89c2.33-.24 2.5-.41 2.5-2.68v-7.09c0-2.19-.21-2.3-2.06-2.64v-.79c1.65-.31 3.26-.72 4.77-1.4v2.74c.68-.52 1.44-1.03 2.29-1.61.96-.62 1.85-1.03 2.85-1.03 2.71 0 4.42 1.89 4.42 5.21v6.61c0 2.33.17 2.47 2.16 2.68v.89h-7.13z"/><path d="m1209.67 121.78c-1.51 1.99-3.81 3.5-5.83 3.5-4.32 0-6.85-3.5-6.85-7.17 0-2.64 1.13-4.93 3.43-6.72 1.78-1.37 3.84-1.92 5.17-1.92s2.5.45 3.05.89c.45.38.55.68.55 1.06 0 .72-.75 1.47-1.13 1.47-.17 0-.34-.1-.65-.38-1.03-.96-2.23-1.41-3.43-1.41-2.26 0-4.25 1.89-4.25 5.49 0 4.76 3.26 6.34 5.17 6.34 1.48 0 2.61-.41 4.18-1.89l.59.72z"/><path d="m1212.16 123.29c0-1.1.82-1.95 1.92-1.95s1.92.86 1.92 1.95c0 1.2-.82 1.99-1.92 1.99s-1.92-.79-1.92-1.99z"/></g></svg>