<svg height="40" viewBox="0 0 35 40" width="35" xmlns="http://www.w3.org/2000/svg" xmlns:xlink="http://www.w3.org/1999/xlink"><clipPath id="a"><path d="m0-.379h35v40h-35z"/></clipPath><g transform="translate(0 .379)"><g clip-path="url(#a)"><path d="m0 0h23" fill="none" stroke="#171d2f" stroke-linejoin="round" stroke-width="2" transform="translate(12 20.621)"/></g><g fill="none" stroke="#171d2f" stroke-linejoin="round" stroke-width="2"><path d="m27 22h3.3v2.476" transform="translate(-4.713 -3.84)"/><g clip-path="url(#a)"><path d="m35 22.382v-2.477h4.953v-9.905h-4.128" transform="translate(-6.11 -1.746)"/><path d="m34.476 15.032h-2.476v-14.032h2.476a1.65 1.65 0 0 1 1.651 1.651v10.731a1.65 1.65 0 0 1 -1.651 1.65z" transform="translate(-5.586 -.175)"/><path d="m0 0v5" transform="translate(8 32.621)"/><path d="m20.683 41.414-4.953-9.08h-5.777a4.952 4.952 0 0 1 -4.953-4.952v-9.082a3.3 3.3 0 0 1 3.3-3.3h3.3l5.778 4.127h4.127s.474 4.127-3.3 4.127h-3.3l-4.953-3.3" transform="translate(-.873 -2.618)"/><path d="m14 23v4.953h4.127a4.127 4.127 0 0 1 3.9 2.764l3.981 12.093" transform="translate(-2.444 -4.015)"/><path d="m1 17v12.382a6.6 6.6 0 0 0 6.6 6.6h5.778" transform="translate(-.175 -2.968)"/><path d="m1 29h6.6l1.651 2.476" transform="translate(-.175 -5.062)"/><path d="m13.905 46.651h-3.305l-1.647-1.651-1.653 1.651h-3.3" transform="translate(-.698 -7.855)"/><path d="m9.714 10.254a3.615 3.615 0 0 0 3.714-3.537v-1.18a3.615 3.615 0 0 0 -3.714-3.537 3.615 3.615 0 0 0 -3.714 3.537v1.18a3.615 3.615 0 0 0 3.714 3.537z" transform="translate(-1.047 -.349)"/></g></g></g></svg>