<svg height="42" viewBox="0 0 39 42" width="39" xmlns="http://www.w3.org/2000/svg" xmlns:xlink="http://www.w3.org/1999/xlink"><clipPath id="a"><path d="m0 0h39v42h-39z"/></clipPath><g clip-path="url(#a)" fill="none" stroke="#171d2f" stroke-miterlimit="10" stroke-width="2"><path d="m28.85 41.11v-2.658c0-2.408-4.96-3.494-7.425-3.494s-7.425 1.086-7.425 3.494v2.658" transform="translate(-1.77 -4.42)"/><path d="m22.057 30.838a3.125 3.125 0 0 0 3.057-3.359v-1.12a3.071 3.071 0 1 0 -6.115 0v1.121a3.125 3.125 0 0 0 3.058 3.358z" transform="translate(-2.403 -2.908)"/><path d="m7.057 32.82a3.13 3.13 0 0 1 -3.057-3.368v-1.124a3.132 3.132 0 0 1 3.057-3.37 3.132 3.132 0 0 1 3.057 3.37v1.123a3.13 3.13 0 0 1 -3.057 3.369z" transform="translate(-.506 -3.156)"/><path d="m37.057 32.82a3.13 3.13 0 0 0 3.057-3.368v-1.124a3.072 3.072 0 1 0 -6.115 0v1.123a3.13 3.13 0 0 0 3.058 3.369z" transform="translate(-4.299 -3.156)"/><path d="m41.848 46.609v-7.025a2.6 2.6 0 0 0 -2.621-2.584h-2.62l-4.368 4.368h-5.239s-.39 3.494 2.621 3.494h5.239l3.494-3.513" transform="translate(-3.412 -4.679)"/><path d="m1 46.609v-7.025a2.584 2.584 0 0 1 2.6-2.584h2.625l4.368 4.368h5.241s.39 3.494-2.621 3.494h-5.241l-3.487-3.513" transform="translate(-.126 -4.679)"/><path d="m0 0v3" transform="translate(32 39)"/><path d="m0 0v3" transform="translate(7 39)"/><path d="m0 0h13" transform="translate(13 40)"/><path d="m9.747 1h22.712a1.747 1.747 0 0 1 1.747 1.747v12.23a1.747 1.747 0 0 1 -1.747 1.747h-3.494v3.754a.873.873 0 0 1 -1.537.568l-3.7-4.321h-13.981a1.747 1.747 0 0 1 -1.747-1.748v-12.23a1.747 1.747 0 0 1 1.747-1.747z" transform="translate(-1.012 -.126)"/></g></svg>