<svg height="35" viewBox="0 0 34 35" width="34" xmlns="http://www.w3.org/2000/svg" xmlns:xlink="http://www.w3.org/1999/xlink"><clipPath id="a"><path d="m0 0h34v35h-34z"/></clipPath><g clip-path="url(#a)" fill="none" stroke="#171d2f" stroke-linejoin="round" stroke-width="2"><path d="m36.733 11.14-.339-.587a8.132 8.132 0 0 0 -8.529-3.925l-2.27-3.928a3.39 3.39 0 0 0 -4.631-1.24l-1.174.678-1.175.678a3.39 3.39 0 0 0 -1.24 4.631l2.27 3.933a8.13 8.13 0 0 0 -.866 9.348l.339.587z" transform="translate(-3.553 -.21)"/><path d="m33.438 17.7a4.068 4.068 0 1 1 -7.046 4.068" transform="translate(-5.542 -3.716)"/><path d="m25.91 41.74h-22.91v-1.58a3.16 3.16 0 0 1 3.16-3.16h16.59a3.16 3.16 0 0 1 3.16 3.16z" transform="translate(-.63 -7.77)"/><path d="m0 6.772 9.48-6.772" transform="translate(4.74 7.9)"/><path d="m8.179 8.69-8.179-8.69" transform="translate(4.461 17.38)"/><circle cx="2.5" cy="2.5" r="2.5" transform="translate(1 13)"/><path d="m14 35.37a2.37 2.37 0 0 1 4.74 0" transform="translate(-2.94 -6.93)"/></g></svg>