<svg height="31" viewBox="0 0 36 31" width="36" xmlns="http://www.w3.org/2000/svg" xmlns:xlink="http://www.w3.org/1999/xlink"><clipPath id="a"><path d="m0 .5h36v31h-36z"/></clipPath><g clip-path="url(#a)" fill="none" stroke="#171d2f" stroke-width="2" transform="translate(0 -.5)"><g stroke-linecap="round" stroke-linejoin="round"><path d="m35.344 23v13.881h-33.344v-13.881" transform="translate(-.484 -6.112)"/><path d="m9.336 21.612h-1.524c-3.763 0-6.812-2.383-6.812-5.845v-8.767h34.86v8.767c0 3.462-3.059 5.845-6.82 5.845h-1.516" transform="translate(-.242 -1.801)"/><path d="m10 0h-10" transform="translate(13 19.5)"/></g><path d="m26.852 3.922v-.73a2.234 2.234 0 0 0 -2.274-2.192h-5.3a2.234 2.234 0 0 0 -2.278 2.192v.731" stroke-miterlimit="10" transform="translate(-4.117 -.185)"/><path d="m0 0h4v5h-4z" stroke-linecap="round" stroke-linejoin="round" transform="translate(9 17.5)"/><path d="m0 0h4v5h-4z" stroke-linecap="round" stroke-linejoin="round" transform="translate(23 17.5)"/></g></svg>